# Blender v2.74 (sub 0) OBJ File: 'board.blend'
# www.blender.org
mtllib board.mtl
o Cube
v 1.000000 -1.000000 0.781206
v 1.000000 -1.000000 2.781206
v -1.000000 -1.000000 2.781206
v -1.000000 -1.000000 0.781206
v 1.000000 -1.000000 1.780921
v -1.000000 -1.000000 1.780921
v -1.000000 -1.000000 1.281063
v 1.000000 -1.000000 1.281064
v 0.000000 -1.000000 0.781206
v 0.000000 -1.000000 2.781206
v 0.000000 -1.000000 1.780921
v 0.000000 -1.000000 1.281064
v -0.500000 -1.000000 0.781206
v -0.500000 -1.000000 2.781206
v -0.500000 -1.000000 1.780921
v -0.500000 -1.000000 1.281063
v -1.000000 0.770193 0.781206
v -1.000000 0.770193 1.281063
v 1.000000 -1.000000 3.781206
v -1.000000 -1.000000 3.781206
v 0.000000 -1.000000 3.781206
v -0.500000 -1.000000 3.781206
v 1.000000 1.500000 2.781206
v 1.000000 1.500000 3.781206
v -1.000000 -0.939644 2.781206
v -1.000000 -0.939644 3.781206
v 1.000000 -0.939644 3.781206
v 1.000000 -0.939644 2.781206
v 0.500000 -1.000000 0.781206
v 0.500000 -1.000000 2.781206
v 0.500000 -1.000000 1.780921
v 0.500000 -1.000000 1.281064
v 0.500000 -1.000000 3.781206
v -0.030873 -1.000000 0.781206
v -0.030873 -1.000000 2.781206
v -0.030873 -1.000000 1.780921
v -0.030873 -1.000000 1.281064
v -0.030873 -1.000000 3.781206
v 0.936609 -0.939644 3.781206
v 0.936609 -0.939644 2.781206
v 0.936609 1.500000 3.781206
v 0.936609 1.500000 2.781206
v -1.000000 -1.000000 2.781206
v -1.000000 -1.000000 3.781206
v -1.000000 -0.939644 2.781206
v -1.000000 -0.939644 3.781206
v -1.000000 -1.000000 2.781206
v -1.000000 -1.000000 3.781206
v -1.000000 -0.939644 2.781206
v -1.000000 -0.939644 3.781206
v -2.077877 -1.000000 2.781206
v -2.077877 -1.000000 3.781206
v -2.077877 -0.939644 2.781206
v -2.077877 -0.939644 3.781206
v 2.000000 -1.000000 2.781206
v 2.000000 -1.000000 3.781206
v 2.000000 2.000000 2.781206
v 2.000000 2.000000 3.781206
v 2.000000 -0.939644 3.781206
v 2.000000 -0.939644 2.781206
v 1.932881 -1.000000 2.781206
v 1.932881 -0.939644 2.781206
v 1.932881 -0.939644 3.781206
v 1.932881 -1.000000 3.781206
v 1.932881 1.969822 2.781206
v 1.932881 2.030178 2.781206
v 1.932881 2.030178 3.781206
v 1.932881 1.969822 3.781206
vn 0.000000 -1.000000 0.000000
vn -1.000000 0.000000 -0.000000
vn 0.000000 1.000000 0.000000
vn 0.000000 0.000000 1.000000
vn 0.000000 0.000000 -1.000000
vn 1.000000 0.000000 0.000000
vn 0.410100 0.912100 0.000000
vn -0.997700 -0.025900 -0.063200
usemtl Material
s off
f 14//1 3//1 6//1
f 15//1 6//1 7//1
f 16//1 7//1 4//1
f 32//1 12//1 9//1
f 31//1 11//1 12//1
f 31//1 30//1 10//1
f 37//1 16//1 13//1
f 37//1 36//1 15//1
f 35//1 14//1 15//1
f 7//2 18//2 17//2
f 10//1 21//1 38//1
f 2//1 19//1 33//1
f 14//1 22//1 20//1
f 28//3 27//3 63//3
f 20//4 26//4 46//4
f 62//5 60//5 55//5
f 27//3 28//3 40//3
f 20//4 22//4 26//4
f 38//4 39//4 26//4
f 27//4 21//4 33//4
f 30//1 33//1 21//1
f 2//1 30//1 31//1
f 8//1 5//1 31//1
f 8//1 32//1 29//1
f 21//4 27//4 39//4
f 39//3 40//3 25//3
f 35//1 38//1 22//1
f 10//1 35//1 36//1
f 11//1 36//1 37//1
f 12//1 37//1 34//1
f 28//5 62//5 61//5
f 42//3 41//3 24//3
f 41//4 39//4 27//4
f 44//4 46//4 50//4
f 25//4 3//4 43//4
f 26//4 25//4 45//4
f 3//4 20//4 44//4
f 50//4 54//4 52//4
f 45//4 43//4 47//4
f 46//4 45//4 49//4
f 43//4 44//4 48//4
f 52//2 54//2 53//2
f 47//5 51//5 53//5
f 49//3 53//3 54//3
f 48//1 52//1 51//1
f 60//6 57//6 58//6
f 55//6 60//6 59//6
f 19//4 64//4 63//4
f 64//4 56//4 59//4
f 2//1 61//1 64//1
f 61//1 55//1 56//1
f 62//3 63//3 59//3
f 62//6 66//6 67//6
f 61//2 62//2 66//2
f 63//2 64//2 68//2
f 61//6 65//6 68//6
f 57//7 66//7 67//7
f 67//4 68//4 58//4
f 68//4 63//4 59//4
f 28//4 23//4 42//4
f 23//2 28//2 27//2
f 15//1 14//1 6//1
f 16//1 15//1 7//1
f 13//1 16//1 4//1
f 29//1 32//1 9//1
f 32//1 31//1 12//1
f 11//1 31//1 10//1
f 34//1 37//1 13//1
f 16//1 37//1 15//1
f 36//1 35//1 15//1
f 4//2 7//2 17//2
f 35//1 10//1 38//1
f 30//1 2//1 33//1
f 3//1 14//1 20//1
f 62//3 28//3 63//3
f 44//4 20//4 46//4
f 61//5 62//5 55//5
f 39//3 27//3 40//3
f 22//4 38//4 26//4
f 19//4 27//4 33//4
f 10//1 30//1 21//1
f 5//1 2//1 31//1
f 32//1 8//1 31//1
f 1//1 8//1 29//1
f 38//4 21//4 39//4
f 26//3 39//3 25//3
f 14//1 35//1 22//1
f 11//1 10//1 36//1
f 12//1 11//1 37//1
f 9//1 12//1 34//1
f 2//5 28//5 61//5
f 23//3 42//3 24//3
f 24//4 41//4 27//4
f 48//4 44//4 50//4
f 45//4 25//4 43//4
f 46//4 26//4 45//4
f 43//4 3//4 44//4
f 48//4 50//4 52//4
f 49//4 45//4 47//4
f 50//4 46//4 49//4
f 47//4 43//4 48//4
f 51//2 52//2 53//2
f 49//5 47//5 53//5
f 50//3 49//3 54//3
f 47//1 48//1 51//1
f 59//6 60//6 58//6
f 56//6 55//6 59//6
f 27//4 19//4 63//4
f 63//4 64//4 59//4
f 19//1 2//1 64//1
f 64//1 61//1 56//1
f 60//3 62//3 59//3
f 63//6 62//6 67//6
f 65//6 61//6 66//6
f 67//6 63//6 68//6
f 64//6 61//6 68//6
f 58//7 57//7 67//7
f 58//4 68//4 59//4
f 40//4 28//4 42//4
f 41//8 23//8 27//8
